<?xml version="1.0" encoding="UTF-8"?><svg id="Layer_1" xmlns="http://www.w3.org/2000/svg" viewBox="0 0 463.74 163.67"><path d="M43.04,33.22C49.77,13.38,68.39,0,89.33,0s39.5,13.38,46.16,33.22l43.04,126.78h-55.14l-7.21-22.56h-53.85l-7.21,22.56H0L43.04,33.22ZM89.27,53.27l-14.14,44.3h28.28l-14.14-44.3ZM316.75,21.88c-7.75-7-16.86-12.37-27.33-16.17-10.47-3.8-21.89-5.71-34.13-5.71s-23.66,1.9-34.13,5.71c-10.54,3.8-19.58,9.17-27.26,16.17-7.68,7-13.66,15.49-18.08,25.48-4.35,9.99-6.59,21.2-6.59,33.63s2.18,23.71,6.59,33.9c4.35,10.19,10.4,18.96,18.08,26.16,7.68,7.2,16.73,12.77,27.26,16.71,10.47,3.94,21.89,5.91,34.13,5.91s23.66-1.97,34.13-5.91c10.47-3.94,19.65-9.51,27.33-16.71,7.75-7.2,13.8-15.97,18.15-26.16,4.35-10.19,6.59-21.54,6.59-33.9s-2.18-23.58-6.59-33.63c-4.35-9.99-10.4-18.48-18.15-25.48ZM283.64,94.98c-1.56,4.21-3.67,7.88-6.46,10.94-2.79,3.06-5.98,5.44-9.72,7.13-3.74,1.7-7.75,2.51-12.17,2.51s-8.5-.82-12.24-2.51c-3.81-1.7-7-4.08-9.72-7.13-2.72-3.06-4.83-6.73-6.32-10.94-1.56-4.21-2.31-8.9-2.31-14s.75-9.51,2.31-13.66c1.56-4.14,3.67-7.68,6.32-10.53,2.72-2.85,5.92-5.1,9.72-6.66,3.81-1.63,7.89-2.38,12.24-2.38s8.43.82,12.17,2.38c3.74,1.63,6.93,3.8,9.72,6.66,2.79,2.85,4.89,6.32,6.46,10.53,1.56,4.14,2.31,8.56,2.31,13.66s-.75,9.78-2.31,14ZM405.61,115.09V5.03h-52.55v114.41c0,22.42,18.15,40.63,40.66,40.63h70.03v-44.91h-58.06l-.07-.07Z"/></svg>