<svg width="789" height="448" viewBox="0 0 789 448" fill="none" xmlns="http://www.w3.org/2000/svg">
<g filter="url(#filter0_i_250_46)">
<path d="M61.5866 448C52.6378 448 44.2483 446.042 36.4181 442.127C29.1472 438.212 27.1896 430.941 30.5454 420.315L139.609 83.0562C141.287 77.4632 141.287 72.7092 139.609 68.7941C137.931 64.8789 134.296 62.9214 128.703 62.9214C123.669 62.9214 117.796 64.5993 111.085 67.9551C104.373 71.3109 96.5429 77.1835 87.5941 85.5731C78.6453 93.4033 67.739 104.31 54.875 118.292C47.6041 126.122 40.8925 130.597 34.7402 131.715C29.1472 132.834 22.1559 130.317 13.7664 124.165C3.13971 116.335 -1.33469 109.064 0.343207 102.352C2.02111 95.6405 5.09726 89.4882 9.57167 83.8952C22.4356 68.2347 35.2995 54.2522 48.1634 41.9476C61.5866 29.0837 76.1285 19.0163 91.7889 11.7454C108.009 3.91513 126.466 0 147.16 0C167.854 0 182.955 3.91513 192.463 11.7454C202.53 19.0163 208.683 28.804 210.92 41.1086C213.157 52.8539 213.157 65.4382 210.92 78.8615C208.683 92.2847 205.886 104.589 202.53 115.775L187.429 161.079C203.649 135.351 220.148 112.419 236.927 92.2847C254.266 72.1498 271.604 55.3708 288.942 41.9476C306.84 27.9651 324.738 17.618 342.635 10.9064C360.533 3.63546 378.431 0 396.328 0C425.971 0 447.225 7.27091 460.088 21.8127C473.512 35.7953 479.944 55.3708 479.384 80.5394C479.384 105.708 474.071 134.232 463.444 166.112L377.871 426.187C375.075 433.458 370.88 438.772 365.287 442.127C359.694 446.042 350.466 448 337.602 448C328.653 448 320.263 446.042 312.433 442.127C304.603 438.212 302.645 430.941 306.56 420.315L396.328 146.816C401.362 132.275 404.438 119.131 405.557 107.386C407.235 95.0812 405.557 85.2934 400.523 78.0225C395.489 70.7516 385.142 67.1161 369.482 67.1161C351.584 67.1161 331.729 75.226 309.916 91.4457C288.663 107.665 266.57 130.597 243.639 160.24C220.708 189.323 198.056 224 175.684 264.27C153.312 303.98 132.059 347.606 111.924 395.146L101.856 426.187C99.6191 433.458 95.4243 438.772 89.272 442.127C83.679 446.042 74.4506 448 61.5866 448ZM665.631 448C644.937 448 629.557 443.526 619.489 434.577C609.981 425.069 604.388 413.323 602.71 399.341C601.032 385.358 601.871 370.537 605.227 354.876C608.583 339.216 612.498 324.674 616.972 311.251L673.182 146.816C678.216 132.275 681.292 119.131 682.411 107.386C684.088 95.0812 682.411 85.2934 677.377 78.0225C672.343 70.7516 661.996 67.1161 646.336 67.1161C627.879 67.1161 607.464 75.5056 585.092 92.2847C563.279 109.064 540.628 132.834 517.137 163.596C494.206 193.798 471.274 229.593 448.343 270.981C425.971 311.81 404.718 356.554 384.583 405.213H351.025C373.397 342.012 397.167 285.523 422.336 235.745C447.504 185.968 473.791 143.461 501.197 108.225C529.162 72.9888 557.407 46.1424 585.931 27.6854C615.015 9.22849 644.098 0 673.182 0C702.825 0 724.078 7.27091 736.942 21.8127C750.366 36.3546 757.077 56.2098 757.077 81.3783C757.077 105.988 751.484 134.232 740.298 166.112L677.377 348.165C674.021 358.792 672.063 366.622 671.504 371.655C671.504 376.689 672.623 380.045 674.86 381.723C677.097 383.401 679.614 384.24 682.411 384.24C688.004 384.24 693.876 382.562 700.029 379.206C706.181 375.291 712.613 369.978 719.324 363.266C726.036 355.995 733.307 347.605 741.137 338.097C745.612 332.504 750.086 329.428 754.56 328.869C759.035 327.75 764.348 329.428 770.5 333.903C780.008 339.496 785.602 345.089 787.279 350.682C789.517 356.275 788.957 361.868 785.602 367.461C780.568 375.85 772.458 386.477 761.272 399.341C750.086 412.205 736.383 423.67 720.163 433.738C703.944 443.246 685.766 448 665.631 448Z" fill="url(#paint0_linear_250_46)"/>
</g>
<defs>
<filter id="filter0_i_250_46" x="0" y="0" width="788.622" height="457.588" filterUnits="userSpaceOnUse" color-interpolation-filters="sRGB">
<feFlood flood-opacity="0" result="BackgroundImageFix"/>
<feBlend mode="normal" in="SourceGraphic" in2="BackgroundImageFix" result="shape"/>
<feColorMatrix in="SourceAlpha" type="matrix" values="0 0 0 0 0 0 0 0 0 0 0 0 0 0 0 0 0 0 127 0" result="hardAlpha"/>
<feOffset dy="9.58801"/>
<feGaussianBlur stdDeviation="4.79401"/>
<feComposite in2="hardAlpha" operator="arithmetic" k2="-1" k3="1"/>
<feColorMatrix type="matrix" values="0 0 0 0 0 0 0 0 0 0 0 0 0 0 0 0 0 0 0.25 0"/>
<feBlend mode="normal" in2="shape" result="effect1_innerShadow_250_46"/>
</filter>
<linearGradient id="paint0_linear_250_46" x1="408.601" y1="-411.925" x2="408.601" y2="507.326" gradientUnits="userSpaceOnUse">
<stop stop-color="white"/>
<stop offset="1" stop-color="#EFEFEF"/>
</linearGradient>
</defs>
</svg>
