<svg width="48" height="48" viewBox="0 0 48 48" fill="none" xmlns="http://www.w3.org/2000/svg">
<rect width="48" height="48" rx="8.4375" fill="url(#paint0_linear_248_67)"/>
<g filter="url(#filter0_i_248_67)">
<path d="M8.41812 34.5C7.99865 34.5 7.60539 34.4082 7.23835 34.2247C6.89752 34.0412 6.80576 33.7004 6.96307 33.2022L12.0754 17.3933C12.1541 17.1311 12.1541 16.9082 12.0754 16.7247C11.9968 16.5412 11.8264 16.4494 11.5642 16.4494C11.3282 16.4494 11.053 16.5281 10.7383 16.6854C10.4237 16.8427 10.0567 17.118 9.63723 17.5112C9.21775 17.8783 8.70651 18.3895 8.10352 19.0449C7.76269 19.412 7.44809 19.6217 7.1597 19.6742C6.89752 19.7266 6.56981 19.6086 6.17655 19.3202C5.67842 18.9532 5.46869 18.6124 5.54734 18.2978C5.62599 17.9831 5.77018 17.6948 5.97992 17.4326C6.58292 16.6985 7.18591 16.0431 7.78891 15.4663C8.41812 14.8633 9.09977 14.3914 9.83385 14.0506C10.5942 13.6835 11.4593 13.5 12.4294 13.5C13.3994 13.5 14.1073 13.6835 14.553 14.0506C15.0249 14.3914 15.3133 14.8502 15.4181 15.427C15.523 15.9775 15.523 16.5674 15.4181 17.1966C15.3133 17.8258 15.1822 18.4026 15.0249 18.927C14.9237 19.2305 15.3825 19.4553 15.5709 19.1967C15.9237 18.7126 16.2791 18.2556 16.6372 17.8258C17.45 16.882 18.2627 16.0955 19.0754 15.4663C19.9144 14.8109 20.7533 14.3258 21.5923 14.0112C22.4312 13.6704 23.2702 13.5 24.1091 13.5C25.4986 13.5 26.4949 13.8408 27.0979 14.5225C27.7271 15.1779 28.0286 16.0955 28.0024 17.2753C28.0024 18.4551 27.7533 19.7921 27.2552 21.2865L23.244 33.4775C23.1129 33.8184 22.9163 34.0674 22.6541 34.2247C22.3919 34.4082 21.9593 34.5 21.3563 34.5C20.9369 34.5 20.5436 34.4082 20.1766 34.2247C19.8095 34.0412 19.7177 33.7004 19.9013 33.2022L24.1091 20.382C24.3451 19.7004 24.4893 19.0843 24.5417 18.5337C24.6204 17.9569 24.5417 17.4981 24.3058 17.1573C24.0698 16.8165 23.5848 16.6461 22.8507 16.6461C22.0118 16.6461 21.081 17.0262 20.0586 17.7865C19.0623 18.5468 18.0267 19.6217 16.9518 21.0112C15.8769 22.3745 14.8151 24 13.7664 25.8876C12.7177 27.7491 11.7215 29.794 10.7777 32.0225L10.3058 33.4775C10.2009 33.8184 10.0043 34.0674 9.71588 34.2247C9.4537 34.4082 9.02112 34.5 8.41812 34.5ZM36.7327 34.5C35.7627 34.5 35.0417 34.2903 34.5698 33.8708C34.1241 33.4251 33.8619 32.8745 33.7833 32.2191C33.7046 31.5637 33.744 30.8689 33.9013 30.1348C34.0586 29.4007 34.2421 28.7191 34.4518 28.0899L37.0867 20.382C37.3226 19.7004 37.4668 19.0843 37.5192 18.5337C37.5979 17.9569 37.5192 17.4981 37.2833 17.1573C37.0473 16.8165 36.5623 16.6461 35.8282 16.6461C34.9631 16.6461 34.0061 17.0393 32.9574 17.8258C31.935 18.6124 30.8732 19.7266 29.7721 21.1685C28.6971 22.5843 27.6222 24.2622 26.5473 26.2022C25.5704 27.9851 24.639 29.9272 23.7531 32.0286C23.6344 32.3101 23.3593 32.4944 23.0538 32.4944C22.5326 32.4944 22.1682 31.9786 22.3483 31.4894C23.2902 28.9297 24.2835 26.6168 25.3282 24.5506C26.508 22.2172 27.7402 20.2247 29.0249 18.573C30.3357 16.9214 31.6597 15.6629 32.9968 14.7978C34.3601 13.9326 35.7234 13.5 37.0867 13.5C38.4762 13.5 39.4724 13.8408 40.0754 14.5225C40.7046 15.2041 41.0192 16.1348 41.0192 17.3146C41.0192 18.4682 40.7571 19.7921 40.2327 21.2865L37.2833 29.8202C37.126 30.3184 37.0342 30.6854 37.008 30.9213C37.008 31.1573 37.0604 31.3146 37.1653 31.3933C37.2702 31.4719 37.3882 31.5112 37.5192 31.5112C37.7814 31.5112 38.0567 31.4326 38.3451 31.2753C38.6335 31.0918 38.935 30.8427 39.2496 30.5281C39.5642 30.1873 39.905 29.794 40.2721 29.3483C40.4818 29.0861 40.6915 28.9419 40.9013 28.9157C41.111 28.8633 41.3601 28.9419 41.6485 29.1517C42.0942 29.4139 42.3563 29.676 42.435 29.9382C42.5398 30.2004 42.5136 30.4625 42.3563 30.7247C42.1204 31.118 41.7402 31.6161 41.2159 32.2191C40.6915 32.8221 40.0492 33.3596 39.2889 33.8315C38.5286 34.2772 37.6765 34.5 36.7327 34.5Z" fill="url(#paint1_linear_248_67)"/>
</g>
<defs>
<filter id="filter0_i_248_67" x="5.53125" y="13.5" width="36.9666" height="21.4494" filterUnits="userSpaceOnUse" color-interpolation-filters="sRGB">
<feFlood flood-opacity="0" result="BackgroundImageFix"/>
<feBlend mode="normal" in="SourceGraphic" in2="BackgroundImageFix" result="shape"/>
<feColorMatrix in="SourceAlpha" type="matrix" values="0 0 0 0 0 0 0 0 0 0 0 0 0 0 0 0 0 0 127 0" result="hardAlpha"/>
<feOffset dy="0.449438"/>
<feGaussianBlur stdDeviation="0.224719"/>
<feComposite in2="hardAlpha" operator="arithmetic" k2="-1" k3="1"/>
<feColorMatrix type="matrix" values="0 0 0 0 0 0 0 0 0 0 0 0 0 0 0 0 0 0 0.25 0"/>
<feBlend mode="normal" in2="shape" result="effect1_innerShadow_248_67"/>
</filter>
<linearGradient id="paint0_linear_248_67" x1="24" y1="0" x2="24" y2="48" gradientUnits="userSpaceOnUse">
<stop stop-color="#FAFAFA"/>
<stop offset="1" stop-color="#F0F0F0"/>
</linearGradient>
<linearGradient id="paint1_linear_248_67" x1="24.6844" y1="-5.80898" x2="24.6844" y2="37.2809" gradientUnits="userSpaceOnUse">
<stop stop-color="#888888"/>
<stop offset="1"/>
</linearGradient>
</defs>
</svg>
