<svg width="2604" height="384" viewBox="0 0 2604 384" fill="none" xmlns="http://www.w3.org/2000/svg">
<g filter="url(#filter0_i_248_32)">
<path d="M38.912 381.44C33.4507 381.44 28.3307 380.246 23.552 377.856C19.1147 375.467 17.92 371.03 19.968 364.544L86.528 158.72C87.552 155.307 87.552 152.406 86.528 150.016C85.504 147.627 83.2853 146.432 79.872 146.432C76.8 146.432 73.216 147.456 69.12 149.504C65.024 151.552 60.2453 155.136 54.784 160.256C49.3227 165.035 42.6667 171.691 34.816 180.224C30.3787 185.003 26.2827 187.734 22.528 188.416C19.1147 189.099 14.848 187.563 9.728 183.808C3.24267 179.03 0.512003 174.592 1.536 170.496C2.56 166.4 4.43734 162.646 7.168 159.232C15.0187 149.675 22.8693 141.142 30.72 133.632C38.912 125.782 47.7867 119.638 57.344 115.2C67.2427 110.422 78.5067 108.032 91.136 108.032C103.765 108.032 112.981 110.422 118.784 115.2C124.928 119.638 128.683 125.611 130.048 133.12C131.413 140.288 131.413 147.968 130.048 156.16C128.683 164.352 126.976 171.862 124.928 178.688L115.712 206.336C125.611 190.635 135.68 176.64 145.92 164.352C156.501 152.064 167.083 141.824 177.664 133.632C188.587 125.099 199.509 118.784 210.432 114.688C221.355 110.251 232.277 108.032 243.2 108.032C261.291 108.032 274.261 112.47 282.112 121.344C290.304 129.878 294.229 141.824 293.888 157.184C293.888 172.544 290.645 189.952 284.16 209.408L231.936 368.128C230.229 372.566 227.669 375.808 224.256 377.856C220.843 380.246 215.211 381.44 207.36 381.44C201.899 381.44 196.779 380.246 192 377.856C187.221 375.467 186.027 371.03 188.416 364.544L243.2 197.632C246.272 188.758 248.149 180.736 248.832 173.568C249.856 166.059 248.832 160.086 245.76 155.648C242.688 151.211 236.373 148.992 226.816 148.992C215.893 148.992 203.776 153.942 190.464 163.84C177.493 173.739 164.011 187.734 150.016 205.824C136.021 223.574 122.197 244.736 108.544 269.312C94.8907 293.547 81.92 320.171 69.632 349.184L63.488 368.128C62.1227 372.566 59.5627 375.808 55.808 377.856C52.3947 380.246 46.7627 381.44 38.912 381.44ZM417.792 382.464C402.773 382.464 391.68 379.563 384.512 373.76C377.344 368.299 372.907 361.302 371.2 352.768C369.493 343.894 369.493 334.678 371.2 325.12C372.907 315.222 375.125 306.176 377.856 297.984L412.16 197.632C415.232 188.758 417.109 180.736 417.792 173.568C418.816 166.059 417.792 160.086 414.72 155.648C411.648 151.211 405.333 148.992 395.776 148.992C384.512 148.992 372.053 154.112 358.4 164.352C345.088 174.592 331.264 189.099 316.928 207.872C302.933 226.304 288.939 248.15 274.944 273.408C261.291 298.326 248.32 325.632 236.032 355.328H215.552C229.205 316.758 243.712 282.283 259.072 251.904C274.432 221.526 290.475 195.584 307.2 174.08C324.267 152.576 341.504 136.192 358.912 124.928C376.661 113.664 394.411 108.032 412.16 108.032C430.251 108.032 443.221 112.47 451.072 121.344C459.264 130.219 463.36 142.336 463.36 157.696C463.36 172.715 459.947 189.952 453.12 209.408L422.912 297.472C416.768 315.563 414.037 327.851 414.72 334.336C415.403 340.822 419.669 344.064 427.52 344.064C432.64 344.064 436.224 346.112 438.272 350.208C440.661 353.963 441.515 358.4 440.832 363.52C440.149 368.299 437.931 372.566 434.176 376.32C430.421 380.416 424.96 382.464 417.792 382.464ZM418.436 382.464C413.657 382.464 410.073 380.416 407.684 376.32C405.295 372.566 404.441 368.299 405.124 363.52C405.465 358.4 407.513 353.963 411.268 350.208C415.023 346.112 420.484 344.064 427.652 344.064C436.527 344.064 445.913 340.822 455.812 334.336C465.711 327.851 475.951 318.806 486.532 307.2C496.772 295.595 507.353 281.942 518.276 266.24C529.199 250.539 540.292 233.472 551.556 215.04C554.287 210.603 558.041 208.726 562.82 209.408C567.599 210.091 571.524 212.31 574.596 216.064C577.668 219.478 577.839 223.403 575.108 227.84C560.431 253.44 546.436 275.968 533.124 295.424C520.153 314.88 507.524 331.094 495.236 344.064C482.607 356.694 470.148 366.251 457.86 372.736C445.231 379.222 432.089 382.464 418.436 382.464ZM633.988 383.488C612.825 383.488 594.905 379.222 580.228 370.688C565.551 362.155 554.457 350.379 546.948 335.36C539.78 320 536.196 302.763 536.196 283.648C536.196 265.558 539.439 246.443 545.924 226.304C552.409 205.824 561.967 186.71 574.596 168.96C587.567 150.87 603.609 136.192 622.724 124.928C642.18 113.664 664.708 108.032 690.308 108.032C711.471 108.032 729.22 112.128 743.556 120.32C758.233 128.171 769.156 139.435 776.324 154.112C783.833 168.448 787.588 185.174 787.588 204.288C787.588 217.942 785.54 232.96 781.444 249.344C777.689 265.387 771.716 281.43 763.524 297.472C755.673 313.174 745.604 327.51 733.316 340.48C721.028 353.451 706.521 363.862 689.796 371.712C673.412 379.563 654.809 383.488 633.988 383.488ZM639.108 342.528C655.833 342.528 670.511 338.091 683.14 329.216C695.769 320.342 706.351 309.078 714.884 295.424C723.417 281.43 729.903 266.923 734.34 251.904C738.777 236.544 740.996 222.379 740.996 209.408C740.996 196.096 738.777 185.003 734.34 176.128C729.903 167.254 723.588 160.598 715.396 156.16C707.204 151.382 697.476 148.992 686.212 148.992C669.145 148.992 654.127 153.43 641.156 162.304C628.185 170.838 617.263 181.931 608.388 195.584C599.855 209.238 593.369 223.574 588.932 238.592C584.495 253.611 582.276 267.435 582.276 280.064C582.276 293.376 584.495 304.811 588.932 314.368C593.711 323.584 600.367 330.582 608.9 335.36C617.433 340.139 627.503 342.528 639.108 342.528ZM801.7 179.2C795.897 179.2 788.9 178.176 780.708 176.128C772.516 174.08 764.665 171.35 757.156 167.936C749.305 164.182 742.82 160.427 737.7 156.672C734.628 154.283 732.921 151.04 732.58 146.944C732.239 142.507 732.921 138.411 734.628 134.656C736.335 130.56 738.895 127.659 742.308 125.952C745.721 124.246 749.476 124.758 753.572 127.488C763.471 133.974 772.687 138.24 781.22 140.288C789.753 141.995 797.604 142.848 804.772 142.848C815.012 142.848 824.399 141.142 832.932 137.728C841.807 133.974 850.169 129.878 858.02 125.44C865.871 121.003 873.551 117.078 881.06 113.664C888.911 109.91 896.761 108.032 904.612 108.032C909.049 108.032 912.292 110.08 914.34 114.176C916.729 117.931 917.583 122.368 916.9 127.488C916.559 132.267 914.34 136.704 910.244 140.8C906.148 144.555 900.004 146.432 891.812 146.432C886.692 146.432 880.889 148.139 874.404 151.552C868.26 154.624 861.433 158.379 853.924 162.816C846.756 167.254 838.735 171.179 829.86 174.592C821.327 177.664 811.94 179.2 801.7 179.2ZM852.912 381.44C847.451 381.44 842.331 380.246 837.552 377.856C833.115 375.467 831.92 371.03 833.968 364.544L900.528 158.72C901.552 155.307 901.381 152.406 900.016 150.016C898.992 147.627 896.432 146.432 892.336 146.432C887.216 146.432 883.973 144.555 882.608 140.8C881.584 136.704 881.755 132.267 883.12 127.488C884.827 122.368 887.557 117.931 891.312 114.176C895.408 110.08 900.016 108.032 905.136 108.032C917.765 108.032 926.981 110.422 932.784 115.2C938.928 119.638 942.683 125.611 944.048 133.12C945.413 140.288 945.413 147.968 944.048 156.16C942.683 164.352 940.976 171.862 938.928 178.688L929.712 206.336C939.611 190.635 949.68 176.64 959.92 164.352C970.501 152.064 981.083 141.824 991.664 133.632C1002.59 125.099 1013.51 118.784 1024.43 114.688C1035.35 110.251 1046.28 108.032 1057.2 108.032C1075.29 108.032 1088.26 112.47 1096.11 121.344C1104.3 129.878 1108.23 141.824 1107.89 157.184C1107.89 172.544 1104.65 189.952 1098.16 209.408L1045.94 368.128C1044.23 372.566 1041.67 375.808 1038.26 377.856C1034.84 380.246 1029.21 381.44 1021.36 381.44C1015.9 381.44 1010.78 380.246 1006 377.856C1001.22 375.467 1000.03 371.03 1002.42 364.544L1057.2 197.632C1060.27 188.758 1062.15 180.736 1062.83 173.568C1063.86 166.059 1062.83 160.086 1059.76 155.648C1056.69 151.211 1050.37 148.992 1040.82 148.992C1029.89 148.992 1017.78 153.942 1004.46 163.84C991.493 173.739 978.011 187.734 964.016 205.824C950.021 223.574 936.197 244.736 922.544 269.312C908.891 293.547 895.92 320.171 883.632 349.184L877.488 368.128C876.123 372.566 873.563 375.808 869.808 377.856C866.395 380.246 860.763 381.44 852.912 381.44ZM1231.79 382.464C1216.77 382.464 1205.68 379.563 1198.51 373.76C1191.34 368.299 1186.91 361.302 1185.2 352.768C1183.49 343.894 1183.49 334.678 1185.2 325.12C1186.91 315.222 1189.13 306.176 1191.86 297.984L1226.16 197.632C1229.23 188.758 1231.11 180.736 1231.79 173.568C1232.82 166.059 1231.79 160.086 1228.72 155.648C1225.65 151.211 1219.33 148.992 1209.78 148.992C1198.51 148.992 1186.05 154.112 1172.4 164.352C1159.09 174.592 1145.26 189.099 1130.93 207.872C1116.93 226.304 1102.94 248.15 1088.94 273.408C1075.29 298.326 1062.32 325.632 1050.03 355.328H1029.55C1043.21 316.758 1057.71 282.283 1073.07 251.904C1088.43 221.526 1104.47 195.584 1121.2 174.08C1138.27 152.576 1155.5 136.192 1172.91 124.928C1190.66 113.664 1208.41 108.032 1226.16 108.032C1244.25 108.032 1257.22 112.47 1265.07 121.344C1273.26 130.219 1277.36 142.336 1277.36 157.696C1277.36 172.715 1273.95 189.952 1267.12 209.408L1236.91 297.472C1230.77 315.563 1228.04 327.851 1228.72 334.336C1229.4 340.822 1233.67 344.064 1241.52 344.064C1246.64 344.064 1250.22 346.112 1252.27 350.208C1254.66 353.963 1255.51 358.4 1254.83 363.52C1254.15 368.299 1251.93 372.566 1248.18 376.32C1244.42 380.416 1238.96 382.464 1231.79 382.464ZM1232.44 382.464C1225.95 382.464 1221.68 380.416 1219.64 376.32C1217.25 372.566 1216.73 368.299 1218.1 363.52C1219.12 358.4 1221.68 353.963 1225.78 350.208C1229.88 346.112 1235.17 344.064 1241.65 344.064C1255.65 344.064 1272.37 340.139 1291.83 332.288C1310.94 324.438 1332.45 312.662 1356.34 296.96C1360.44 294.23 1364.19 293.718 1367.6 295.424C1371.02 297.131 1373.58 300.032 1375.28 304.128C1377.33 308.224 1378.01 312.491 1377.33 316.928C1376.65 321.366 1374.43 324.95 1370.68 327.68C1350.54 340.992 1331.93 351.744 1314.87 359.936C1297.46 367.787 1281.93 373.419 1268.28 376.832C1254.28 380.587 1242.33 382.464 1232.44 382.464ZM1356.34 300.544C1362.48 296.79 1368.46 292.864 1374.26 288.768C1380.06 284.672 1385.87 280.576 1391.67 276.48C1407.03 265.216 1420.85 253.611 1433.14 241.664C1445.43 229.718 1455.16 217.942 1462.32 206.336C1469.83 194.731 1473.59 183.979 1473.59 174.08C1473.59 166.23 1471.88 160.086 1468.47 155.648C1465.05 151.211 1459.93 148.992 1453.11 148.992C1448.33 148.992 1444.75 146.944 1442.36 142.848C1440.31 138.752 1439.63 133.974 1440.31 128.512C1440.99 123.051 1443.21 118.272 1446.96 114.176C1451.06 110.08 1456.69 108.032 1463.86 108.032C1474.1 108.032 1483.49 110.251 1492.02 114.688C1500.55 118.784 1507.21 124.928 1511.99 133.12C1517.11 140.971 1519.67 150.528 1519.67 161.792C1519.67 177.152 1514.72 193.366 1504.82 210.432C1495.26 227.158 1482.46 243.883 1466.42 260.608C1450.38 276.992 1432.46 292.352 1412.66 306.688C1406.17 311.126 1399.52 315.734 1392.69 320.512C1385.87 324.95 1379.04 329.216 1372.21 333.312L1356.34 300.544ZM1424.1 382.464C1414.54 382.464 1405.66 380.587 1397.47 376.832C1388.94 373.078 1381.26 367.787 1374.43 360.96C1367.61 354.134 1361.97 346.112 1357.54 336.896C1352.76 327.68 1349.17 317.611 1346.78 306.688C1344.05 295.766 1342.69 284.16 1342.69 271.872C1342.69 255.83 1344.91 238.422 1349.34 219.648C1353.78 200.534 1360.95 182.614 1370.85 165.888C1380.41 148.822 1392.86 134.998 1408.22 124.416C1423.58 113.494 1442.19 108.032 1464.03 108.032C1468.81 108.032 1472.39 110.08 1474.78 114.176C1476.83 118.272 1477.51 123.051 1476.83 128.512C1475.81 133.974 1473.42 138.752 1469.66 142.848C1465.57 146.944 1459.94 148.992 1452.77 148.992C1444.23 148.992 1436.55 151.894 1429.73 157.696C1422.56 163.158 1416.42 170.496 1411.3 179.712C1406.18 188.928 1401.91 198.998 1398.5 209.92C1395.08 220.843 1392.52 231.766 1390.82 242.688C1389.11 253.27 1388.26 262.827 1388.26 271.36C1388.26 280.918 1389.28 289.963 1391.33 298.496C1393.38 307.03 1396.28 314.71 1400.03 321.536C1403.79 328.022 1408.39 333.312 1413.86 337.408C1419.32 341.163 1425.46 343.04 1432.29 343.04C1442.53 343.04 1453.11 339.798 1464.03 333.312C1474.61 326.486 1486.05 316.928 1498.34 304.64C1510.28 292.011 1523.08 277.163 1536.74 260.096C1550.39 242.688 1565.07 223.232 1580.77 201.728C1595.45 181.931 1608.59 165.888 1620.19 153.6C1631.8 141.312 1642.38 131.926 1651.94 125.44C1661.49 118.614 1670.37 114.006 1678.56 111.616C1686.75 109.227 1694.94 108.032 1703.14 108.032C1706.21 108.032 1708.26 110.08 1709.28 114.176C1710.65 117.931 1710.65 122.368 1709.28 127.488C1708.26 132.267 1706.04 136.704 1702.62 140.8C1699.55 144.555 1695.11 146.432 1689.31 146.432C1685.22 146.432 1680.27 148.651 1674.46 153.088C1668.66 157.184 1662.01 163.328 1654.5 171.52C1647.33 179.371 1639.14 189.099 1629.92 200.704C1621.05 211.968 1611.49 224.598 1601.25 238.592C1583.5 262.827 1567.11 283.99 1552.1 302.08C1537.42 320.171 1523.42 335.19 1510.11 347.136C1496.8 359.083 1483.32 367.958 1469.66 373.76C1455.67 379.563 1440.48 382.464 1424.1 382.464ZM1803.49 382.464C1788.47 382.464 1777.21 379.563 1769.7 373.76C1762.53 368.299 1758.09 361.302 1756.38 352.768C1754.68 343.894 1754.68 334.678 1756.38 325.12C1758.09 315.222 1760.31 306.176 1763.04 297.984L1797.86 197.632C1800.93 188.758 1802.81 180.736 1803.49 173.568C1804.51 166.059 1803.32 160.086 1799.9 155.648C1796.83 151.211 1790.52 148.992 1780.96 148.992C1769.7 148.992 1757.07 153.942 1743.07 163.84C1729.42 173.739 1715.25 187.563 1700.58 205.312C1686.24 223.062 1671.9 244.224 1657.57 268.8C1643.23 293.035 1629.92 319.83 1617.63 349.184L1611.49 368.128C1610.12 372.566 1607.56 375.808 1603.81 377.856C1600.39 380.246 1594.76 381.44 1586.91 381.44C1581.45 381.44 1576.33 380.246 1571.55 377.856C1567.11 375.467 1565.92 371.03 1567.97 364.544L1634.53 158.72C1635.55 155.307 1635.38 152.406 1634.02 150.016C1632.99 147.627 1630.43 146.432 1626.34 146.432C1622.24 146.432 1619.34 144.555 1617.63 140.8C1616.27 136.704 1616.1 132.267 1617.12 127.488C1618.14 122.368 1620.53 117.931 1624.29 114.176C1628.04 110.08 1632.99 108.032 1639.14 108.032C1651.77 108.032 1660.98 110.422 1666.78 115.2C1672.93 119.638 1676.68 125.611 1678.05 133.12C1679.41 140.288 1679.41 147.968 1678.05 156.16C1676.68 164.352 1674.98 171.862 1672.93 178.688L1662.69 209.408C1673.27 193.024 1684.02 178.688 1694.94 166.4C1706.21 153.771 1717.47 143.19 1728.74 134.656C1740 125.782 1751.43 119.126 1763.04 114.688C1774.65 110.251 1786.25 108.032 1797.86 108.032C1813.56 108.032 1825.67 111.958 1834.21 119.808C1842.74 127.318 1847.52 138.582 1848.54 153.6C1849.57 168.619 1846.33 187.222 1838.82 209.408L1808.61 297.472C1802.46 315.222 1799.56 327.51 1799.9 334.336C1800.59 340.822 1805.02 344.064 1813.22 344.064C1817.99 344.064 1821.41 346.112 1823.46 350.208C1825.85 353.963 1826.7 358.4 1826.02 363.52C1825.67 368.299 1823.63 372.566 1819.87 376.32C1816.12 380.416 1810.66 382.464 1803.49 382.464ZM1803.44 382.464C1798.66 382.464 1795.07 380.416 1792.68 376.32C1790.29 372.566 1789.44 368.299 1790.12 363.52C1790.47 358.4 1792.51 353.963 1796.27 350.208C1800.02 346.112 1805.48 344.064 1812.65 344.064C1820.84 344.064 1830.4 340.822 1841.32 334.336C1852.25 327.851 1864.88 317.44 1879.21 303.104C1893.21 288.427 1909.08 269.142 1926.83 245.248C1944.92 221.014 1964.89 191.318 1986.73 156.16C1989.8 151.382 1993.73 149.334 1998.51 150.016C2003.63 150.699 2007.55 152.918 2010.28 156.672C2013.36 160.427 2013.53 164.523 2010.8 168.96C1985.2 211.968 1962.5 247.296 1942.7 274.944C1922.9 302.592 1904.98 324.267 1888.94 339.968C1872.9 355.67 1858.05 366.763 1844.4 373.248C1830.4 379.392 1816.75 382.464 1803.44 382.464ZM1999.53 382.464C1983.49 382.464 1970.35 378.88 1960.11 371.712C1950.21 364.203 1943.04 354.475 1938.6 342.528C1934.17 330.24 1932.29 316.587 1932.97 301.568C1933.65 286.55 1936.56 271.36 1941.68 256L1973.93 158.72H1935.02C1931.27 158.72 1928.71 157.014 1927.34 153.6C1925.97 150.187 1926.15 145.067 1927.85 138.24C1929.9 131.414 1932.63 126.294 1936.04 122.88C1939.46 119.467 1943.04 117.76 1946.8 117.76H1987.76L2021.04 16.3842C2023.08 9.55757 2025.64 5.12023 2028.72 3.07224C2032.13 1.02424 2037.25 0.000244141 2044.08 0.000244141C2055 0.000244141 2061.83 1.70691 2064.56 5.12024C2067.29 8.19224 2067.46 13.1416 2065.07 19.9682L2032.3 117.76H2096.81C2100.57 117.76 2103.13 119.467 2104.49 122.88C2106.2 125.952 2106.03 131.072 2103.98 138.24C2102.27 144.726 2099.71 149.846 2096.3 153.6C2092.89 157.014 2089.3 158.72 2085.55 158.72H2018.99L1985.2 260.608C1980.42 274.944 1977.69 287.403 1977 297.984C1976.66 308.566 1977.69 317.27 1980.08 324.096C1982.81 330.923 1986.73 336.043 1991.85 339.456C1996.97 342.528 2002.77 344.064 2009.26 344.064C2014.04 344.064 2017.62 346.112 2020.01 350.208C2022.4 353.963 2023.25 358.4 2022.57 363.52C2021.89 368.299 2019.67 372.566 2015.92 376.32C2012.16 380.416 2006.7 382.464 1999.53 382.464ZM2001.44 382.464C1996.66 382.464 1993.07 380.416 1990.68 376.32C1988.29 372.566 1987.44 368.299 1988.12 363.52C1988.47 358.4 1990.51 353.963 1994.27 350.208C1998.02 346.112 2003.48 344.064 2010.65 344.064C2019.53 344.064 2028.91 340.822 2038.81 334.336C2048.71 327.851 2058.95 318.806 2069.53 307.2C2079.77 295.595 2090.35 281.942 2101.28 266.24C2112.2 250.539 2123.29 233.472 2134.56 215.04C2137.29 210.603 2141.04 208.726 2145.82 209.408C2150.6 210.091 2154.52 212.31 2157.6 216.064C2160.67 219.478 2160.84 223.403 2158.11 227.84C2143.43 253.44 2129.44 275.968 2116.12 295.424C2103.15 314.88 2090.52 331.094 2078.24 344.064C2065.61 356.694 2053.15 366.251 2040.86 372.736C2028.23 379.222 2015.09 382.464 2001.44 382.464ZM2217.49 383.488C2196.33 383.488 2178.41 379.222 2163.73 370.688C2149.05 362.155 2137.96 350.379 2130.45 335.36C2123.28 320 2119.7 302.763 2119.7 283.648C2119.7 265.558 2122.94 246.443 2129.42 226.304C2135.91 205.824 2145.47 186.71 2158.1 168.96C2171.07 150.87 2187.11 136.192 2206.22 124.928C2225.68 113.664 2248.21 108.032 2273.81 108.032C2294.97 108.032 2312.72 112.128 2327.06 120.32C2341.73 128.171 2352.66 139.435 2359.82 154.112C2367.33 168.448 2371.09 185.174 2371.09 204.288C2371.09 217.942 2369.04 232.96 2364.94 249.344C2361.19 265.387 2355.22 281.43 2347.02 297.472C2339.17 313.174 2329.1 327.51 2316.82 340.48C2304.53 353.451 2290.02 363.862 2273.3 371.712C2256.91 379.563 2238.31 383.488 2217.49 383.488ZM2222.61 342.528C2239.33 342.528 2254.01 338.091 2266.64 329.216C2279.27 320.342 2289.85 309.078 2298.38 295.424C2306.92 281.43 2313.4 266.923 2317.84 251.904C2322.28 236.544 2324.5 222.379 2324.5 209.408C2324.5 196.096 2322.28 185.003 2317.84 176.128C2313.4 167.254 2307.09 160.598 2298.9 156.16C2290.7 151.382 2280.98 148.992 2269.71 148.992C2252.65 148.992 2237.63 153.43 2224.66 162.304C2211.69 170.838 2200.76 181.931 2191.89 195.584C2183.35 209.238 2176.87 223.574 2172.43 238.592C2167.99 253.611 2165.78 267.435 2165.78 280.064C2165.78 293.376 2167.99 304.811 2172.43 314.368C2177.21 323.584 2183.87 330.582 2192.4 335.36C2200.93 340.139 2211 342.528 2222.61 342.528ZM2418.48 251.904C2408.24 251.904 2398 249.686 2387.76 245.248C2377.52 240.47 2367.62 232.107 2358.06 220.16C2348.17 208.214 2338.44 191.318 2328.88 169.472C2326.15 162.304 2326.83 156.502 2330.93 152.064C2335.02 147.627 2340.14 145.408 2346.29 145.408C2352.09 145.408 2356.36 148.48 2359.09 154.624C2368.65 177.494 2378.71 193.707 2389.3 203.264C2399.88 212.822 2410.63 217.6 2421.55 217.6C2435.55 217.6 2450.22 210.091 2465.58 195.072C2480.94 180.054 2496.65 158.038 2512.69 129.024C2516.1 122.539 2520.03 118.784 2524.46 117.76C2529.24 116.395 2533.51 116.736 2537.26 118.784C2541.02 120.832 2543.58 124.075 2544.94 128.512C2546.65 132.608 2546.31 137.046 2543.92 141.824C2532.31 165.718 2519.69 185.856 2506.03 202.24C2492.38 218.624 2478.21 231.083 2463.54 239.616C2448.86 247.808 2433.84 251.904 2418.48 251.904ZM2505.53 383.488C2488.81 383.488 2473.62 380.928 2459.96 375.808C2446.65 370.688 2437.44 365.227 2432.32 359.424C2427.2 353.963 2424.81 349.355 2425.15 345.6C2425.49 341.504 2427.88 337.408 2432.32 333.312C2436.41 329.216 2440 327.339 2443.07 327.68C2446.48 328.022 2450.92 330.07 2456.38 333.824C2462.18 337.579 2469.01 340.992 2476.86 344.064C2485.05 346.795 2493.76 348.16 2502.97 348.16C2520.72 348.16 2534.55 343.894 2544.44 335.36C2554.34 326.827 2559.29 315.051 2559.29 300.032C2559.29 291.499 2557.93 282.966 2555.2 274.432C2552.47 265.558 2548.88 256.683 2544.44 247.808C2540.01 238.934 2535.4 229.888 2530.62 220.672C2525.84 211.456 2521.23 201.899 2516.8 192C2512.36 182.102 2508.77 171.862 2506.04 161.28C2503.31 150.358 2501.95 139.094 2501.95 127.488C2501.95 109.398 2506.04 96.5976 2514.24 89.0882C2522.77 81.2376 2531.64 77.3122 2540.86 77.3122C2548.71 77.3122 2554.68 79.5309 2558.78 83.9682C2563.22 88.0642 2565.44 93.3549 2565.44 99.8402C2565.44 106.667 2562.71 114.006 2557.24 121.856C2552.12 129.707 2546.66 137.046 2540.86 143.872C2540.86 152.064 2542.4 160.256 2545.47 168.448C2548.54 176.299 2552.47 184.491 2557.24 193.024C2562.02 201.216 2566.97 209.579 2572.09 218.112C2577.55 226.646 2582.67 235.52 2587.45 244.736C2592.23 253.611 2596.16 262.827 2599.23 272.384C2602.3 281.6 2603.84 291.328 2603.84 301.568C2603.84 326.144 2594.96 345.942 2577.21 360.96C2559.8 375.979 2535.91 383.488 2505.53 383.488Z" fill="url(#paint0_linear_248_32)"/>
</g>
<defs>
<filter id="filter0_i_248_32" x="0" y="0" width="2603.84" height="391.488" filterUnits="userSpaceOnUse" color-interpolation-filters="sRGB">
<feFlood flood-opacity="0" result="BackgroundImageFix"/>
<feBlend mode="normal" in="SourceGraphic" in2="BackgroundImageFix" result="shape"/>
<feColorMatrix in="SourceAlpha" type="matrix" values="0 0 0 0 0 0 0 0 0 0 0 0 0 0 0 0 0 0 127 0" result="hardAlpha"/>
<feOffset dy="8"/>
<feGaussianBlur stdDeviation="4"/>
<feComposite in2="hardAlpha" operator="arithmetic" k2="-1" k3="1"/>
<feColorMatrix type="matrix" values="0 0 0 0 0 0 0 0 0 0 0 0 0 0 0 0 0 0 0.25 0"/>
<feBlend mode="normal" in2="shape" result="effect1_innerShadow_248_32"/>
</filter>
<linearGradient id="paint0_linear_248_32" x1="1336.94" y1="-143.24" x2="1336.94" y2="631.76" gradientUnits="userSpaceOnUse">
<stop stop-color="#888888"/>
<stop offset="1"/>
</linearGradient>
</defs>
</svg>
