<svg width="24" height="24" viewBox="0 0 24 24" fill="none" xmlns="http://www.w3.org/2000/svg">
<path d="M10.0442 16.09L10.0423 18.8668C10.0423 19.6135 10.0418 19.9864 9.90301 20.2716C9.78088 20.5225 9.58675 20.727 9.34706 20.8548C9.07484 21 8.71757 21 8.00555 21H5.03925C4.32723 21 3.97131 21 3.69909 20.8548C3.4594 20.727 3.26467 20.5225 3.14254 20.2716C3.0037 19.9864 3.0037 19.6135 3.0037 18.8668L3.00556 16.09C3.00556 15.3433 3.00556 14.9697 3.1444 14.6844C3.26652 14.4336 3.46125 14.2297 3.70094 14.1019C3.97343 13.9566 4.32978 13.9566 5.0432 13.9566H8.00556C8.71897 13.9566 9.07643 13.9566 9.34892 14.1019C9.5886 14.2297 9.78274 14.4336 9.90487 14.6844C10.0437 14.9697 10.0442 15.3433 10.0442 16.09ZM3.00367 7.8668L3.00183 5.13347C3.00183 4.38673 3.00183 4.01308 3.14067 3.72787C3.2628 3.47698 3.45753 3.27316 3.69722 3.14532C3.9697 3 4.32605 3 5.03947 3H8.60621H19.0018C19.7152 3 20.0727 3 20.3452 3.14532C20.5849 3.27316 20.779 3.47698 20.9011 3.72787C21.04 4.01308 21.0405 4.38673 21.0405 5.13347L21.0423 7.8668C21.0423 8.61353 21.0418 8.98638 20.903 9.2716C20.7808 9.52248 20.5867 9.72699 20.347 9.85482C20.0748 10 19.7175 10 19.0055 10H16.3962H5.03922C4.3272 10 3.97128 10 3.69906 9.85482C3.45937 9.72699 3.26464 9.52248 3.14251 9.2716C3.00367 8.98638 3.00367 8.61353 3.00367 7.8668ZM21.046 16.09L21.0442 18.8668C21.0442 19.6135 21.0437 19.9864 20.9048 20.2716C20.7827 20.5225 20.5886 20.727 20.3489 20.8548C20.0767 21 19.7194 21 19.0074 21H16.0411C15.3291 21 14.9731 21 14.7009 20.8548C14.4612 20.727 14.2665 20.5225 14.1444 20.2716C14.0055 19.9864 14.0055 19.6135 14.0055 18.8668L14.0074 16.09C14.0074 15.3433 14.0074 14.9697 14.1462 14.6844C14.2684 14.4336 14.4631 14.2297 14.7028 14.1019C14.9753 13.9566 15.3316 13.9566 16.045 13.9566H19.0074C19.7208 13.9566 20.0783 13.9566 20.3507 14.1019C20.5904 14.2297 20.7846 14.4336 20.9067 14.6844C21.0455 14.9697 21.046 15.3433 21.046 16.09Z" stroke="black" stroke-width="2" stroke-linecap="round" stroke-linejoin="round"/>
</svg>
